# xmcd CD database file generated by Grip 2.96
# 
# Track frame offsets:
#       150
#       17824
#       30111
#       47666
#       63003
#       85209
#       106069
#       122591
#       152412
# 
# Disc length: 2279 seconds
# 
# Revision: 0
# Processed by: cddbd v1.4PL0 Copyright (c) Steve Scherf et al.
# Submitted via: Grip 2.96
# 
DISCID=5708e509
DTITLE=Blues Fools - Fools In The Blues
DYEAR=1900
DGENRE=
TTITLE0=Bad Weather Blues
TTITLE1=Fools In The Blues
TTITLE2=Little Boy Rock
TTITLE3=Mattack!
TTITLE4=Daddy Was A Boozer
TTITLE5=My Baby Caught The Train
TTITLE6=Shake Time
TTITLE7=I Wanna Dance With You
TTITLE8=data
EXTD=
EXTT0=
EXTT1=
EXTT2=
EXTT3=
EXTT4=
EXTT5=
EXTT6=
EXTT7=
EXTT8=
PLAYORDER=
